<?xml version="1.0" encoding="UTF-8"?>
<svg id="Layer_1" data-name="Layer 1" xmlns="http://www.w3.org/2000/svg" viewBox="0 0 247.9 191.53">
  <defs>
    <style>
      .cls-1 {
        fill: #4d4d4d;
        stroke-width: 0px;
      }
    </style>
  </defs>
  <path id="check-lg" class="cls-1" d="m219.41,4.95c6.39-6.51,16.86-6.61,23.37-.22.07.07.15.15.22.22,6.45,6.54,6.55,17.01.23,23.67L109.95,186.14c-6.15,6.75-16.6,7.23-23.35,1.08-.22-.2-.44-.41-.65-.63L4.88,104.43c-6.51-6.63-6.51-17.26,0-23.9,6.39-6.51,16.86-6.61,23.37-.22.07.07.15.15.22.22l68.78,69.62L218.95,5.36l.45-.49"/>
</svg>